#N canvas -1334 50 682 413 10;
#X obj 191 18 inlet;
#X obj 191 50 openpanel;
#X obj 191 244 readsf~;
#X msg 97 223 start;
#X obj 190 286 outlet~;
#X obj 382 168 inlet;
#X msg 382 194 stop;
#X obj 129 89 print;
#X obj 97 166 bng 15 250 50 0 empty empty empty 17 7 0 10 -262144 -1
-1;
#X msg 191 146 open C:/Users/Michal/Documents/Pd/Assignment/speech.wav
;
#X msg 191 92 set open \$1;
#X obj 97 191 delay 600;
#X msg 356 92 open \$1;
#X connect 0 0 1 0;
#X connect 1 0 10 0;
#X connect 1 0 7 0;
#X connect 1 0 12 0;
#X connect 2 0 4 0;
#X connect 2 1 9 0;
#X connect 3 0 2 0;
#X connect 5 0 6 0;
#X connect 6 0 2 0;
#X connect 8 0 11 0;
#X connect 9 0 2 0;
#X connect 9 0 8 0;
#X connect 10 0 9 0;
#X connect 11 0 3 0;
#X connect 12 0 2 0;
#X connect 12 0 8 0;
