#N canvas -1610 71 786 545 10;
#X obj 114 156 hsl 128 15 0 50 0 0 \$0-speed_number \$0-speed_slider
Speed_(Frequency_Hz) -2 -8 0 10 -126502 -1 -1 12700 1;
#X floatatom 262 189 5 0 0 0 - #0-depth_number -;
#X obj 114 189 hsl 128 15 0 1 0 0 \$0-depth_number \$0-depth_slider
Depth -2 -8 0 10 -126502 -1 -1 6350 1;
#X floatatom 261 155 5 0 0 0 - #0-speed_number -;
#X obj 343 504 outlet~;
#X obj 387 60 f \$1;
#X obj 387 92 sel 0;
#X floatatom 371 165 5 0 0 0 - - -;
#X obj 530 95 sel 0;
#X floatatom 520 166 5 0 0 0 - - -;
#X obj 530 61 f \$2;
#X floatatom 585 127 5 0 0 0 - - -;
#X floatatom 441 123 5 0 0 0 - - -;
#X msg 371 125 50;
#X msg 520 125 0.5;
#X obj 432 7 loadbang;
#X obj 441 92 inlet;
#X obj 585 95 inlet;
#X obj 269 111 bng 15 250 50 0 empty \$0-reset Reset 18 7 0 10 -262144
-1 -1;
#X obj 644 29 inlet;
#X obj 344 345 osc~;
#X obj 193 105 vradio 15 1 0 2 \$0-wave_type empty empty 0 -8 0 10
-262144 -1 -1 0;
#X obj 344 433 clip~ -1 1;
#X obj 344 390 *~;
#X floatatom 555 335 5 0 0 0 - - -;
#X obj 555 369 * 3000;
#X obj 555 401 + 1;
#X obj 577 502 outlet;
#X obj 645 503 outlet;
#X obj 344 474 *~;
#X msg 430 296 0;
#X obj 310 302 sel 0;
#X msg 210 55 0;
#X text 216 103 Sine;
#X text 216 118 Square;
#X obj 371 199 s \$0-speed_slider;
#X obj 520 198 s \$0-depth_slider;
#X obj 182 268 receive \$0-speed_number;
#X obj 555 294 receive \$0-wave_type;
#X obj 616 418 receive \$0-depth_number;
#X obj 644 76 send \$0-reset;
#X connect 5 0 6 0;
#X connect 6 0 13 0;
#X connect 6 1 12 0;
#X connect 7 0 35 0;
#X connect 8 0 14 0;
#X connect 8 1 11 0;
#X connect 9 0 36 0;
#X connect 10 0 8 0;
#X connect 11 0 9 0;
#X connect 12 0 7 0;
#X connect 13 0 7 0;
#X connect 14 0 9 0;
#X connect 15 0 5 0;
#X connect 15 0 10 0;
#X connect 15 0 21 0;
#X connect 16 0 12 0;
#X connect 17 0 11 0;
#X connect 18 0 7 0;
#X connect 18 0 9 0;
#X connect 18 0 30 0;
#X connect 18 0 32 0;
#X connect 19 0 40 0;
#X connect 20 0 23 0;
#X connect 22 0 29 0;
#X connect 23 0 22 0;
#X connect 24 0 25 0;
#X connect 25 0 26 0;
#X connect 26 0 23 1;
#X connect 29 0 4 0;
#X connect 30 0 20 1;
#X connect 31 0 30 0;
#X connect 32 0 21 0;
#X connect 37 0 20 0;
#X connect 37 0 27 0;
#X connect 37 0 31 0;
#X connect 38 0 24 0;
#X connect 39 0 28 0;
#X connect 39 0 29 1;
#X coords 0 -1 1 1 220 110 1 100 100;
