#N canvas -1645 185 624 517 10;
#X obj 325 111 inlet~;
#X obj 396 110 inlet~;
#X obj 146 128 hsl 128 15 0 1 0 0 empty empty empty -2 -8 0 10 -138688
-1 -1 0 1;
#X floatatom 283 128 5 0 0 0 - - -;
#X floatatom 104 128 5 0 0 0 - - -;
#X floatatom 153 228 5 0 0 0 - - -;
#X obj 153 264 - 1;
#X obj 153 299 * -1;
#X obj 325 226 *~;
#X obj 397 226 *~;
#X obj 357 272 +~;
#X obj 356 343 outlet~;
#X obj 153 29 loadbang;
#X msg 153 53 0;
#X obj 471 69 inlet;
#X connect 0 0 8 0;
#X connect 1 0 9 0;
#X connect 2 0 5 0;
#X connect 3 0 9 1;
#X connect 4 0 8 1;
#X connect 5 0 3 0;
#X connect 5 0 6 0;
#X connect 6 0 7 0;
#X connect 7 0 4 0;
#X connect 8 0 10 0;
#X connect 9 0 10 1;
#X connect 10 0 11 0;
#X connect 12 0 13 0;
#X connect 13 0 2 0;
#X connect 14 0 2 0;
#X coords 0 -1 1 1 220 50 1 100 100;
