#N canvas 487 158 394 308 10;
#X floatatom 22 215 9 0 0 0 - - -, f 9;
#X text 28 155 ~signal_in~;
#X text 41 44 dsp ON/OFF;
#X obj 22 65 dsp;
#X floatatom 22 86 5 0 0 0 - - -, f 5;
#X text 62 88 % cpu;
#X obj 22 125 osc~ 0.03;
#X obj 22 45 tgl 15 1 empty empty empty 8 -8 0 10 -262144 -1 -1 0 1
;
#X text 14 5 unsig~;
#X text 75 18 convert signal to float;
#X floatatom 110 214 9 0 0 0 - - -, f 9;
#X obj 110 153 unsig~ 1000;
#X text 125 178 1.arg: <float> metro-time in ms;
#X text 195 268 IEM KUG;
#X text 173 256 musil;
#X text 209 256 @;
#X text 218 256 iem.at;
#X text 178 278 Graz \, Austria;
#X floatatom 183 134 5 0 0 0 - - -, f 5;
#X msg 184 112 1000;
#X text 229 132 ms;
#X text 177 191 (default 300 ms);
#X text 78 5 counterpart of sig~;
#X text 130 245 (c) Thomas Musil 2000 - 2018;
#X obj 22 171 unsig~;
#X connect 3 0 4 0;
#X connect 6 0 11 0;
#X connect 6 0 24 0;
#X connect 7 0 3 0;
#X connect 11 0 10 0;
#X connect 18 0 11 1;
#X connect 19 0 18 0;
#X connect 24 0 0 0;
