#N canvas 137 121 1007 511 10;
#X obj 201 83 VFX-filtering;
#X text 118 63 Audio signal V;
#X text 233 64 Band-Pass Center V;
#X text 400 63 Band-Pass Q V;
#X text 579 63 Reset V;
#X text 79 460 Final output signal ^;
#X text 653 19 author: Michal Jarmocik;
#X text 25 13 Provides 3 frequency filters: Low-pass \, High-pass and
Band-pass. Each can be applied individually as well as simultaneously
;
