#N canvas 783 220 572 552 10;
#X obj 116 135 hsl 128 15 0 10000 0 0 empty empty Cut-off_frequency
-2 -8 0 10 -126502 -1 -1 0 1;
#X floatatom 256 135 5 0 0 0 - - -;
#X obj 75 54 inlet~;
#X obj 75 307 outlet~;
#X obj 76 249 lop~, f 6;
#X text 106 153 0;
#X text 228 153 10k;
#X text 189 103 [Low-pass filter];
#X obj 372 14 loadbang;
#X obj 233 27 inlet;
#X msg 372 48 500;
#X connect 0 0 1 0;
#X connect 1 0 4 1;
#X connect 2 0 4 0;
#X connect 4 0 3 0;
#X connect 8 0 10 0;
#X connect 9 0 0 0;
#X connect 10 0 0 0;
#X coords 0 -1 1 1 200 75 1 100 100;
