#N canvas -1218 88 855 725 10;
#X obj 109 113 LFO~ 10 1;
#X obj 99 284 +~;
#X obj 118 248 sig~;
#X obj 98 336 *~ 0.5;
#X obj 81 387 *~;
#X obj 80 59 inlet~;
#X text 454 103 [Tremolo];
#X obj 468 125 vradio 15 1 0 2 empty empty empty 0 -8 0 10 -262144
-1 -1 0;
#X text 491 124 OFF;
#X text 491 140 ON;
#X obj 532 39 mixer~;
#X floatatom 535 209 5 0 0 0 - - -;
#X msg 330 76 0;
#X obj 178 15 loadbang;
#X obj 533 132 outlet~;
#X obj 456 13 inlet;
#X text 455 -1 Reset;
#X connect 0 0 1 0;
#X connect 0 2 2 0;
#X connect 1 0 3 0;
#X connect 2 0 1 1;
#X connect 3 0 4 1;
#X connect 4 0 10 1;
#X connect 5 0 4 0;
#X connect 5 0 10 0;
#X connect 7 0 11 0;
#X connect 10 0 14 0;
#X connect 11 0 10 2;
#X connect 12 0 7 0;
#X connect 13 0 12 0;
#X connect 15 0 12 0;
#X connect 15 0 0 2;
#X coords 0 -1 1 1 420 135 2 100 100;
