#N canvas 108 202 572 552 10;
#X obj 113 140 hsl 128 15 0 10000 0 0 empty empty Cut-off_frequency
-2 -8 0 10 -126502 -1 -1 12700 1;
#X floatatom 255 140 5 0 0 0 - - -;
#X obj 75 54 inlet~;
#X obj 75 307 outlet~;
#X text 103 158 0;
#X text 225 158 10k;
#X obj 76 249 hip~, f 6;
#X text 186 103 [High-pass filter];
#X obj 382 18 loadbang;
#X obj 259 40 inlet;
#X msg 382 49 10000;
#X connect 0 0 1 0;
#X connect 1 0 6 1;
#X connect 2 0 6 0;
#X connect 6 0 3 0;
#X connect 8 0 10 0;
#X connect 9 0 0 0;
#X connect 10 0 0 0;
#X coords 0 -1 1 1 200 75 1 100 100;
