#N canvas -1399 77 725 717 10;
#X obj 128 264 hsl 128 15 1 1000 1 0 empty empty empty -2 -8 0 10 -261446
-1 -1 0 1;
#X floatatom 214 238 5 0 0 0 - - -;
#X obj 558 343 +~;
#X obj 558 371 clip~ 1 1000;
#X text 252 237 ms;
#X obj 26 104 inlet~;
#X obj 56 365 s~ \$0-lfo;
#X obj 557 282 r~ \$0-lfo;
#X obj 109 117 LFO~ 10 0.35;
#X obj 267 529 outlet~;
#X obj 27 393 delwrite~ \$0-dline_flanger 1000;
#X obj 559 400 vd~ \$0-dline_flanger;
#X obj 109 294 mixer~;
#X obj 470 123 vradio 15 1 0 2 empty empty empty 0 -8 0 10 -262144
-1 -1 0;
#X text 491 122 OFF;
#X text 491 137 ON;
#X obj 268 448 mixer~;
#X obj 356 19 loadbang;
#X msg 356 57 0;
#X obj 632 87 inlet;
#X obj 109 34 inlet;
#X obj 155 34 inlet;
#X obj 202 34 inlet;
#X obj 251 34 inlet;
#X msg 213 66 1;
#X obj 558 313 *~ 10;
#X text 112 305 Original;
#X text 265 306 Processed;
#X text 168 237 Delay;
#X text 464 103 [Delay];
#X connect 0 0 1 0;
#X connect 1 0 2 1;
#X connect 2 0 3 0;
#X connect 3 0 11 0;
#X connect 5 0 10 0;
#X connect 5 0 12 0;
#X connect 5 0 16 0;
#X connect 7 0 25 0;
#X connect 8 0 6 0;
#X connect 11 0 12 1;
#X connect 12 0 16 1;
#X connect 13 0 16 2;
#X connect 16 0 9 0;
#X connect 17 0 18 0;
#X connect 18 0 13 0;
#X connect 18 0 0 0;
#X connect 18 0 12 2;
#X connect 19 0 18 0;
#X connect 19 0 8 2;
#X connect 20 0 8 0;
#X connect 20 0 24 0;
#X connect 21 0 8 1;
#X connect 22 0 0 0;
#X connect 23 0 12 2;
#X connect 24 0 13 0;
#X connect 25 0 2 0;
#X coords 0 -1 1 1 420 255 2 100 100;
