#N canvas -1520 94 715 725 10;
#X obj 154 137 hsl 128 15 1 1000 1 0 empty empty empty -2 -8 0 10 -261446
-1 -1 7900 1;
#X floatatom 297 137 5 0 0 0 - - -;
#X obj 465 307 sig~;
#X obj 155 177 hsl 128 15 0 1 0 0 empty empty empty -2 -8 0 10 -261446
-1 -1 9100 1;
#X floatatom 297 177 5 0 0 0 - - -;
#X obj 621 313 sig~;
#X obj 542 400 *~;
#X obj 30 20 inlet~;
#X text 192 113 Delay (ms);
#X text 195 157 Feedback;
#X obj 32 473 outlet~;
#X obj 190 33 r~ \$0-feedback;
#X obj 542 434 s~ \$0-feedback;
#X obj 465 345 vd~ dline_reverb;
#X obj 99 60 delwrite~ dline_reverb 1000;
#X obj 109 214 mixer~;
#X obj 468 124 vradio 15 1 0 2 empty empty empty 0 -8 0 10 -262144
-1 -1 1;
#X text 490 124 OFF;
#X text 490 139 ON;
#X obj 31 380 mixer~;
#X obj 373 30 loadbang;
#X msg 373 64 0;
#X text 417 106 [Reverberation];
#X obj 625 49 inlet;
#X text 626 33 Reset;
#X obj 306 8 inlet;
#X obj 349 8 inlet;
#X obj 454 8 inlet;
#X msg 321 58 1;
#X text 112 225 Original;
#X text 264 218 Processed;
#X connect 0 0 1 0;
#X connect 1 0 2 0;
#X connect 2 0 13 0;
#X connect 3 0 4 0;
#X connect 4 0 5 0;
#X connect 5 0 6 1;
#X connect 6 0 12 0;
#X connect 7 0 14 0;
#X connect 7 0 15 0;
#X connect 7 0 19 0;
#X connect 11 0 14 0;
#X connect 13 0 15 1;
#X connect 15 0 6 0;
#X connect 15 0 19 1;
#X connect 16 0 19 2;
#X connect 19 0 10 0;
#X connect 20 0 21 0;
#X connect 21 0 16 0;
#X connect 21 0 0 0;
#X connect 21 0 3 0;
#X connect 21 0 15 2;
#X connect 23 0 21 0;
#X connect 25 0 0 0;
#X connect 25 0 28 0;
#X connect 26 0 3 0;
#X connect 26 0 28 0;
#X connect 27 0 15 2;
#X connect 28 0 16 0;
#X coords 0 -1 1 1 420 175 2 100 100;
