#N canvas -1288 128 450 300 10;
#X obj 40 125 inlet~;
#X obj 41 186 *~ 1;
#X obj 40 259 outlet~;
#X obj 106 154 hsl 128 15 0 10 0 0 empty empty empty -2 -8 0 10 -260145
-1 -1 1270 1;
#X floatatom 98 237 5 0 0 0 - - -;
#X obj 97 19 loadbang;
#X msg 188 23 1;
#X text 182 104 [Volume];
#X obj 180 128 bng 15 250 50 0 empty empty empty 17 7 0 10 -262144
-1 -1;
#X text 200 127 Reset;
#X obj 322 23 inlet;
#X connect 0 0 1 0;
#X connect 1 0 2 0;
#X connect 3 0 4 0;
#X connect 4 0 1 1;
#X connect 5 0 6 0;
#X connect 6 0 3 0;
#X connect 8 0 6 0;
#X connect 10 0 8 0;
#X coords 0 -1 1 1 139 80 1 100 100;
