#N canvas 890 139 450 395 10;
#X obj 34 65 adc~;
#X obj 115 62 inlet;
#X msg 115 89 0;
#X obj 213 61 inlet;
#X msg 213 89 1;
#X obj 33 230 *~ 0;
#X text 111 44 Turn off;
#X text 207 42 Turn on;
#X obj 33 276 outlet~;
#X connect 0 0 5 0;
#X connect 1 0 2 0;
#X connect 2 0 5 1;
#X connect 3 0 4 0;
#X connect 4 0 5 1;
#X connect 5 0 8 0;
