#N canvas -1332 76 1120 725 10;
#X obj 123 247 hsl 128 15 -1000 1000 0 0 \$0-freq_shift \$0-freq_slider
empty -2 -8 0 10 -261517 -1 -1 6350 1;
#X floatatom 737 228 5 0 0 0 - - -;
#X obj 737 378 sig~;
#X obj 737 408 phasor~;
#X obj 786 436 +~ -0.25;
#X obj 736 474 cos~;
#X obj 786 474 cos~;
#X obj 599 479 hilbert~;
#X obj 599 517 *~;
#X obj 652 517 *~;
#X obj 598 585 -~;
#X floatatom 17 377 5 0 0 0 - - -;
#X obj 17 339 snapshot~;
#X obj 17 289 bng 15 250 50 0 empty empty empty 17 7 0 10 -262144 -1
-1;
#X obj 17 251 env~;
#X floatatom 101 406 5 0 0 0 - - -;
#X obj 17 594 *;
#X obj 101 481 trigger b f;
#X floatatom 17 632 5 0 0 0 - - -;
#X obj 12 65 loadbang;
#X obj 354 337 inlet~;
#X obj 330 551 outlet~;
#X floatatom 271 247 5 0 0 0 - #0-freq_shift -;
#X floatatom 737 303 5 0 0 0 - - -;
#X obj 645 227 trigger b f;
#X obj 737 265 + 0;
#X obj 737 340 clip -1000 1000;
#X msg 338 37 0;
#X obj 271 227 bng 15 250 50 0 empty empty empty 17 7 0 10 -262144
-1 -1;
#X text 291 227 Reset;
#X obj 110 113 LFO~ 50 0.35;
#X obj 338 76 send \$0-freq_slider;
#X obj 737 190 receive \$0-freq_shift;
#X obj 101 443 * 1000;
#X obj 108 268 mixer~;
#X text 120 229 Frequency Shift;
#X text 110 281 Original;
#X text 265 280 Processed;
#X text 452 106 [Vibrato];
#X obj 465 124 vradio 15 1 0 2 empty empty empty 0 -8 0 10 -262144
-1 -1 0;
#X text 488 123 OFF;
#X text 488 139 ON;
#X obj 329 455 mixer~;
#X obj 947 87 inlet;
#X text 948 68 Reset;
#X msg 947 118 0;
#X obj 548 30 inlet;
#X obj 611 29 inlet;
#X msg 607 73 1;
#X connect 1 0 25 0;
#X connect 2 0 3 0;
#X connect 3 0 5 0;
#X connect 3 0 4 0;
#X connect 4 0 6 0;
#X connect 5 0 8 1;
#X connect 6 0 9 1;
#X connect 7 0 8 0;
#X connect 7 1 9 0;
#X connect 8 0 10 0;
#X connect 9 0 10 1;
#X connect 10 0 34 1;
#X connect 11 0 16 0;
#X connect 12 0 11 0;
#X connect 13 0 12 0;
#X connect 14 0 13 0;
#X connect 15 0 33 0;
#X connect 16 0 18 0;
#X connect 17 0 16 0;
#X connect 17 1 16 1;
#X connect 18 0 24 0;
#X connect 19 0 15 0;
#X connect 19 0 27 0;
#X connect 20 0 7 0;
#X connect 20 0 34 0;
#X connect 20 0 42 0;
#X connect 23 0 26 0;
#X connect 24 0 25 0;
#X connect 24 1 25 1;
#X connect 25 0 23 0;
#X connect 26 0 2 0;
#X connect 27 0 31 0;
#X connect 27 0 39 0;
#X connect 28 0 27 0;
#X connect 30 0 12 0;
#X connect 30 0 14 0;
#X connect 30 2 15 0;
#X connect 32 0 1 0;
#X connect 33 0 17 0;
#X connect 34 0 42 1;
#X connect 39 0 42 2;
#X connect 42 0 21 0;
#X connect 43 0 27 0;
#X connect 43 0 30 2;
#X connect 43 0 28 0;
#X connect 43 0 45 0;
#X connect 45 0 34 2;
#X connect 46 0 30 0;
#X connect 46 0 48 0;
#X connect 47 0 30 1;
#X connect 47 0 48 0;
#X connect 48 0 39 0;
#X connect 48 0 34 2;
#X coords 0 -1 1 1 420 230 2 100 100;
