#N canvas 0 50 782 300 10;
#X obj 126 109 VFX-ring;
#X text 44 87 Audio signal V;
#X text 266 88 LFO speed V;
#X text 501 89 Reset V;
#X text 376 185 <-- LFO controls;
#X text 20 23 Creates the Ring modulation effect by multiplying the
audio by LFO output;
#X text 11 251 Final audio output ^;
#X text 557 142 <-- Turn effect on or off;
