#N canvas -893 54 715 725 10;
#X msg 115 64 0;
#X obj 118 137 hsl 128 15 -1000 1000 0 0 empty empty Frequency_Shift
-2 -8 0 10 -261446 -1 -1 6350 1;
#X floatatom 258 137 5 0 0 0 - - -;
#X obj 258 222 sig~;
#X obj 257 252 phasor~;
#X obj 309 286 +~ -0.25;
#X obj 258 328 cos~;
#X obj 310 328 cos~;
#X obj 127 310 hilbert~;
#X obj 127 365 *~;
#X obj 180 364 *~;
#X obj 126 417 -~;
#X obj 115 21 loadbang;
#X obj 126 182 inlet~;
#X obj 439 321 outlet~;
#X obj 212 108 bng 15 250 50 0 empty empty empty 17 7 0 10 -262144
-1 -1;
#X text 239 107 Reset;
#X text 100 155 -1k;
#X text 231 155 +1k;
#X obj 470 127 vradio 15 1 0 2 empty empty empty 0 -8 0 10 -262144
-1 -1 0;
#X text 491 127 OFF;
#X text 491 142 ON;
#X obj 438 219 mixer~;
#X text 406 105 [Frequency Shift];
#X obj 651 36 inlet;
#X obj 283 14 inlet;
#X msg 355 35 1;
#X connect 0 0 1 0;
#X connect 0 0 19 0;
#X connect 1 0 2 0;
#X connect 2 0 3 0;
#X connect 3 0 4 0;
#X connect 4 0 6 0;
#X connect 4 0 5 0;
#X connect 5 0 7 0;
#X connect 6 0 9 1;
#X connect 7 0 10 1;
#X connect 8 0 9 0;
#X connect 8 1 10 0;
#X connect 9 0 11 0;
#X connect 10 0 11 1;
#X connect 11 0 22 1;
#X connect 12 0 0 0;
#X connect 13 0 8 0;
#X connect 13 0 22 0;
#X connect 15 0 0 0;
#X connect 19 0 22 2;
#X connect 22 0 14 0;
#X connect 24 0 0 0;
#X connect 24 0 15 0;
#X connect 25 0 1 0;
#X connect 25 0 26 0;
#X connect 26 0 19 0;
#X coords 0 -1 1 1 420 70 2 100 100;
