#N canvas -1433 92 1097 598 10;
#X obj 108 29 inlet~;
#X obj 106 116 VFX-lop;
#X obj 106 213 VFX-hip;
#X obj 106 311 VFX-bp;
#X obj 312 136 vradio 15 1 0 2 empty empty empty 0 -8 0 10 -262144
-1 -1 0;
#X obj 531 102 mixer~;
#X floatatom 755 84 5 0 0 0 - - -;
#X text 339 151 ON;
#X text 339 134 OFF;
#X obj 138 64 s~ \$0-mixer1_l;
#X obj 531 62 r~ \$0-mixer1_l;
#X obj 638 61 r~ \$0-mixer1_r;
#X obj 9 163 s~ \$0-mixer1_r;
#X obj 530 157 s~ \$0-hip;
#X obj 14 208 r~ \$0-hip;
#X obj 312 232 vradio 15 1 0 2 empty empty empty 0 -8 0 10 -262144
-1 -1 0;
#X floatatom 763 213 5 0 0 0 - - -;
#X text 339 247 ON;
#X text 339 230 OFF;
#X obj 531 233 mixer~;
#X obj 531 193 r~ \$0-mixer2_l;
#X obj 638 192 r~ \$0-mixer2_r;
#X obj 604 157 s~ \$0-mixer2_l;
#X obj 8 260 s~ \$0-mixer2_r;
#X obj 530 288 s~ \$0-bp;
#X obj 312 346 vradio 15 1 0 2 empty empty empty 0 -8 0 10 -262144
-1 -1 0;
#X floatatom 758 348 5 0 0 0 - - -;
#X text 339 361 ON;
#X text 339 344 OFF;
#X obj 531 372 mixer~;
#X obj 532 332 r~ \$0-mixer3_l;
#X obj 638 331 r~ \$0-mixer3_r;
#X obj 596 288 s~ \$0-mixer3_l;
#X obj 12 313 r~ \$0-bp;
#X obj 7 395 s~ \$0-mixer3_r;
#X obj 532 459 outlet~;
#X obj 429 10 loadbang;
#X obj 457 123 bng 15 250 50 0 empty empty empty 17 7 0 10 -262144
-1 -1;
#X text 477 123 Reset;
#X msg 367 56 0;
#X text 393 104 [Frequency filters];
#X obj 977 443 inlet;
#X text 976 424 Reset;
#X obj 302 486 inlet;
#X obj 361 486 inlet;
#X text 304 469 BP-C;
#X text 359 468 BP-Q;
#X msg 336 523 1;
#X connect 0 0 1 0;
#X connect 0 0 9 0;
#X connect 1 0 12 0;
#X connect 2 0 23 0;
#X connect 3 0 34 0;
#X connect 4 0 6 0;
#X connect 5 0 13 0;
#X connect 5 0 22 0;
#X connect 6 0 5 2;
#X connect 10 0 5 0;
#X connect 11 0 5 1;
#X connect 14 0 2 0;
#X connect 15 0 16 0;
#X connect 16 0 19 2;
#X connect 19 0 24 0;
#X connect 19 0 32 0;
#X connect 20 0 19 0;
#X connect 21 0 19 1;
#X connect 25 0 26 0;
#X connect 26 0 29 2;
#X connect 29 0 35 0;
#X connect 30 0 29 0;
#X connect 31 0 29 1;
#X connect 33 0 3 0;
#X connect 36 0 39 0;
#X connect 37 0 39 0;
#X connect 39 0 4 0;
#X connect 39 0 15 0;
#X connect 39 0 25 0;
#X connect 41 0 37 0;
#X connect 43 0 3 1;
#X connect 43 0 47 0;
#X connect 44 0 3 2;
#X connect 44 0 47 0;
#X connect 47 0 25 0;
#X coords 0 -1 1 1 420 335 2 100 100;
