#N canvas -1188 137 951 725 10;
#X obj 111 113 LFO~ 10 1;
#X obj 83 336 *~;
#X obj 82 68 inlet~;
#X obj 466 127 vradio 15 1 0 2 empty empty empty 0 -8 0 10 -262144
-1 -1 0;
#X text 489 126 OFF;
#X text 489 143 ON;
#X obj 556 108 mixer~;
#X obj 348 33 loadbang;
#X msg 348 62 0;
#X obj 555 191 outlet~;
#X text 405 107 [Ring modulation];
#X obj 837 72 inlet;
#X text 837 54 Reset;
#X obj 154 49 inlet;
#X msg 238 44 1;
#X connect 0 0 1 1;
#X connect 1 0 6 1;
#X connect 2 0 1 0;
#X connect 2 0 6 0;
#X connect 3 0 6 2;
#X connect 6 0 9 0;
#X connect 7 0 8 0;
#X connect 8 0 3 0;
#X connect 11 0 8 0;
#X connect 11 0 0 2;
#X connect 13 0 0 0;
#X connect 13 0 14 0;
#X connect 14 0 3 0;
#X coords 0 -1 1 1 420 135 2 100 100;
