#N canvas 610 196 572 552 10;
#X obj 116 135 hsl 128 15 0 10000 0 0 empty empty Center_Frequency
-2 -8 0 10 -126502 -1 -1 2540 1;
#X floatatom 258 132 5 0 0 0 - - -;
#X obj 81 269 bp~, f 6;
#X obj 81 44 inlet~;
#X obj 80 344 outlet~;
#X obj 116 178 hsl 128 15 0 100 0 0 empty empty Q_Factor -2 -8 0 10
-126502 -1 -1 6350 1;
#X floatatom 258 176 5 0 0 0 - - -;
#X text 104 148 0;
#X text 228 148 10k;
#X text 104 194 0;
#X text 228 194 100;
#X text 188 101 [Band-pass filter];
#X obj 207 41 loadbang;
#X msg 153 74 2000;
#X obj 306 71 50;
#X obj 401 67 inlet;
#X obj 481 70 inlet;
#X connect 0 0 1 0;
#X connect 1 0 2 1;
#X connect 2 0 4 0;
#X connect 3 0 2 0;
#X connect 5 0 6 0;
#X connect 6 0 2 2;
#X connect 12 0 13 0;
#X connect 12 0 14 0;
#X connect 13 0 0 0;
#X connect 14 0 5 0;
#X connect 15 0 0 0;
#X connect 16 0 5 0;
#X coords 0 -1 1 1 200 110 1 100 100;
