#N canvas -8 -8 1920 997 10;
#X obj 227 167 VoiceChangerBG;
#X text 55 271 Use to change volume ----->;
#X text 3 532 Choose one of premade effects ----->;
#X text 3 613 Reset everything to default state ->;
#X text 159 79 Lets the user choose sound file and plays it in loop
;
#X text 544 80 Swtich to live micrphone input;
#X text 684 716 Adds ring modulation;
#X text 1535 309 Time Delay Effects Can be used to create: - Echo (LFO
speed=0) - Comb Filtering (LFO speed=0) - Flanger;
#X text 171 878 Processed audio output;
#X text 1105 181 Each effect must be turned on to apply it;
#X text 415 106 |, f 3;
#X text 415 125 |;
#X text 414 145 V;
#X text 548 109 |, f 3;
#X text 548 128 |;
#X text 547 148 V;
#X text 1139 272 |------->;
#X text 1139 201 |, f 3;
#X text 1139 220 |;
#X text 1139 234 |, f 3;
#X text 1139 253 |;
#X text 225 839 |;
#X text 224 859 |;
#X text 225 820 ^, f 3;
#X text 670 275 Passes signals with freq;
#X text 670 292 lower than cut-off and;
#X text 671 330 higher;
#X text 665 310 attenuates those with;
#X text 667 363 Passes signals with freq;
#X text 667 399 attenuates those with;
#X text 667 380 higher than cut-off and;
#X text 668 418 lower;
#X text 665 466 Passes signals with freq;
#X text 657 503 attenuate those outside it;
#X text 665 482 in certain range and;
#X text 1121 354 Frequency shifting;
#X text 1121 371 controlled by LFO;
#X text 1050 25 How to use:;
#X text 1050 46 1 Choose sound file or turn on live microphone input
;
#X text 1051 69 2 Turn off desired effects or choose a preset;
#X text 22 19 author: Michal Jarmocik;
