#N canvas -8 -8 1920 997 10;
#X obj 273 166 VFX-filtering;
#X obj 273 561 VFX-ring;
#X obj 715 285 VFX-vibrato;
#X obj 715 166 VFX-freqshift;
#X obj 715 561 VFX-tremolo;
#X obj 1156 520 VFX-reverberation;
#X obj 43 240 outlet~;
#X obj 122 396 vradio 15 1 0 8 empty empty empty 0 -8 0 10 -262144
-1 -1 0;
#X text 143 396 Land-line;
#X text 150 365 Presets;
#X obj 122 545 bng 15 250 50 0 \$0-reset_all empty empty 17 7 0 10
-262144 -1 -1;
#X obj 609 79 r \$0-reset_all;
#X obj 1052 79 r \$0-reset_all;
#X obj 1622 374 r \$0-reset_all;
#X text 141 544 Reset all;
#X obj 3 38 bng 15 250 50 0 empty empty empty 17 7 0 10 -262144 -1
-1;
#X text 144 410 Daleks;
#X msg 478 794 30;
#X obj 16 779 bng 15 250 50 0 empty empty empty 17 7 0 10 -262144 -1
-1;
#X text 144 425 Gollum;
#X msg 852 46 50;
#X msg 990 46 0.35;
#X obj 30 31 bng 15 250 50 0 empty empty empty 17 7 0 10 -262144 -1
-1;
#X text 144 441 Underwater;
#X msg 1239 25 10;
#X msg 1322 25 0.4;
#X msg 1404 25 5;
#X msg 1487 25 1;
#X obj 45 10 bng 15 250 50 0 empty empty empty 17 7 0 10 -262144 -1
-1;
#X text 144 456 C3PO;
#X msg 1260 777 10;
#X msg 1364 777 0.9;
#X msg 1467 777 0.9;
#X obj 58 762 bng 15 250 50 0 empty empty empty 17 7 0 10 -262144 -1
-1;
#X text 144 471 Echo;
#X msg 1268 8 0;
#X msg 1434 8 100;
#X msg 1516 8 0.4;
#X obj 71 -7 bng 15 250 50 0 empty empty empty 17 7 0 10 -262144 -1
-1;
#X msg 1299 -9 0;
#X msg 1547 -9 0.4;
#X msg 1465 -9 15;
#X obj 87 -24 bng 15 250 50 0 empty empty empty 17 7 0 10 -262144 -1
-1;
#X text 144 485 Comb filtering;
#X obj 116 166 amp~;
#X msg 410 53 1850;
#X obj 1156 788 s~ volume;
#X obj 116 73 r~ volume;
#X msg 548 53 10;
#X obj 274 126 bng 15 250 50 0 empty empty empty 17 7 0 10 -262144
-1 -1;
#X text 296 125 Open sound file;
#X obj 286 57 delay 100;
#X obj 417 126 bng 15 250 50 0 empty empty empty 17 7 0 10 -262144
-1 -1;
#X text 441 125 Microphone input;
#X obj 459 80 mic_input;
#X obj 3 525 sel 0 1 2 3 4 5 6 7;
#X msg 921 849 550;
#X obj 100 834 bng 15 250 50 0 empty empty empty 17 7 0 10 -262144
-1 -1;
#X msg 441 37 3700;
#X msg 574 37 5;
#X obj 100 22 bng 15 250 50 0 empty empty empty 17 7 0 10 -262144 -1
-1;
#X obj 274 78 file_loader;
#X obj 1157 166 VFX-delay;
#X text 145 502 Star Wars B1 droid;
#X obj 272 815 send~ ring;
#X obj 716 63 r~ ring;
#X obj 715 806 s~ tremolo;
#X obj 1156 46 r~ tremolo;
#X connect 0 0 1 0;
#X connect 1 0 64 0;
#X connect 2 0 4 0;
#X connect 3 0 2 0;
#X connect 4 0 66 0;
#X connect 5 0 46 0;
#X connect 7 0 10 0;
#X connect 7 0 55 0;
#X connect 11 0 0 3;
#X connect 11 0 1 2;
#X connect 11 0 44 1;
#X connect 12 0 2 3;
#X connect 12 0 3 2;
#X connect 12 0 4 1;
#X connect 13 0 5 4;
#X connect 13 0 62 5;
#X connect 15 0 45 0;
#X connect 15 0 48 0;
#X connect 17 0 1 1;
#X connect 18 0 17 0;
#X connect 20 0 2 1;
#X connect 21 0 2 2;
#X connect 22 0 20 0;
#X connect 22 0 21 0;
#X connect 24 0 62 1;
#X connect 25 0 62 2;
#X connect 26 0 62 3;
#X connect 27 0 62 4;
#X connect 28 0 24 0;
#X connect 28 0 25 0;
#X connect 28 0 26 0;
#X connect 28 0 27 0;
#X connect 30 0 5 1;
#X connect 31 0 5 2;
#X connect 32 0 5 3;
#X connect 33 0 30 0;
#X connect 33 0 31 0;
#X connect 33 0 32 0;
#X connect 35 0 62 1;
#X connect 36 0 62 3;
#X connect 37 0 62 4;
#X connect 38 0 35 0;
#X connect 38 0 36 0;
#X connect 38 0 37 0;
#X connect 39 0 62 1;
#X connect 40 0 62 4;
#X connect 41 0 62 3;
#X connect 42 0 39 0;
#X connect 42 0 41 0;
#X connect 42 0 40 0;
#X connect 44 0 6 0;
#X connect 45 0 0 1;
#X connect 47 0 44 0;
#X connect 48 0 0 2;
#X connect 49 0 51 0;
#X connect 49 0 54 0;
#X connect 49 0 61 1;
#X connect 51 0 61 0;
#X connect 52 0 54 1;
#X connect 52 0 61 1;
#X connect 54 0 0 0;
#X connect 55 0 15 0;
#X connect 55 1 18 0;
#X connect 55 2 22 0;
#X connect 55 3 28 0;
#X connect 55 4 33 0;
#X connect 55 5 38 0;
#X connect 55 6 42 0;
#X connect 55 7 33 0;
#X connect 55 7 60 0;
#X connect 55 7 57 0;
#X connect 56 0 3 1;
#X connect 57 0 56 0;
#X connect 58 0 0 1;
#X connect 59 0 0 2;
#X connect 60 0 58 0;
#X connect 60 0 59 0;
#X connect 61 0 0 0;
#X connect 62 0 5 0;
#X connect 65 0 3 0;
#X connect 67 0 62 0;
#X coords 0 -1 1 1 1500 650 2 100 100;
